<?xml version="1.0" encoding="utf-8"?>
<svg viewBox="0 0 512 512" xmlns="http://www.w3.org/2000/svg">
  <path d="M 406.074 290.926 L 406.074 313.068 C 406.074 315.258 404.684 317.193 402.589 317.864 L 367.723 329.135 C 366.204 329.646 364.525 329.374 363.23 328.415 C 361.951 327.472 361.168 325.969 361.168 324.386 L 361.168 300.247 L 328.459 306.481 L 328.459 331.037 C 328.459 333.547 326.605 335.673 324.095 336.009 L 276.839 342.483 C 276.615 342.483 276.375 342.483 276.151 342.483 C 273.369 342.499 271.099 340.245 271.099 337.464 L 271.099 311.421 L 246.704 311.501 L 243.123 311.501 L 218.727 311.421 L 218.727 337.464 C 218.743 340.245 216.489 342.499 213.707 342.499 C 213.468 342.499 213.244 342.499 213.004 342.499 L 165.748 336.025 C 163.238 335.689 161.399 333.563 161.399 331.053 L 161.399 306.402 L 128.691 300.199 L 128.691 324.323 C 128.675 325.921 127.907 327.408 126.628 328.351 C 125.317 329.294 123.639 329.582 122.12 329.071 L 87.253 317.784 C 85.175 317.129 83.768 315.178 83.784 313.004 L 83.784 290.926 L 62.202 283.653 C 61.131 288.225 60.572 292.909 60.556 297.593 C 60.556 355.496 142.103 400.195 242.931 400.515 L 243.187 400.515 C 343.982 400.195 425.546 355.512 425.546 297.593 C 425.562 293.324 425.099 289.056 424.203 284.868 L 406.074 290.926 Z" fill="#478cbf" style=""/>
  <path d="M 78.157 188.26 L 78.157 278.457 L 90.307 282.549 C 92.353 283.237 93.744 285.171 93.744 287.329 L 93.744 309.455 L 118.603 317.496 L 118.603 294.108 C 118.619 290.958 121.481 288.576 124.566 289.152 L 167.346 297.321 C 169.712 297.769 171.439 299.831 171.439 302.261 L 171.439 326.641 L 208.64 331.724 L 208.64 306.386 C 208.64 303.588 210.894 301.334 213.691 301.35 L 244.897 301.478 L 276.087 301.35 C 278.869 301.334 281.139 303.588 281.139 306.386 L 281.139 331.724 L 318.356 326.641 L 318.356 302.245 C 318.34 299.863 320.018 297.785 322.368 297.321 L 365.133 289.152 C 368.234 288.576 371.096 290.942 371.128 294.092 L 371.128 317.432 L 395.987 309.407 L 395.987 287.314 C 395.987 285.139 397.378 283.237 399.424 282.549 L 407.705 279.752 L 407.705 188.26 L 407.929 188.26 C 416.114 177.757 423.692 166.838 430.662 155.504 C 421.086 139.629 409.799 124.841 397.042 111.429 C 385.516 117.216 374.357 123.706 363.63 130.836 C 358.226 125.785 352.471 121.069 346.476 116.72 C 340.545 112.404 334.39 108.407 328.028 104.73 C 329.818 91.078 330.857 77.329 331.145 63.565 C 315.238 55.811 298.421 50.088 281.107 46.475 C 274.233 58.177 268.046 70.263 262.547 82.669 C 256.088 81.662 249.581 81.15 243.059 81.134 L 242.819 81.134 C 236.28 81.15 229.758 81.662 223.315 82.669 C 217.832 70.263 211.629 58.177 204.739 46.475 C 187.425 50.088 170.623 55.827 154.717 63.565 C 155.02 77.345 156.044 91.078 157.834 104.746 C 151.471 108.423 145.317 112.404 139.37 116.736 C 133.375 121.069 127.651 125.785 122.248 130.836 C 111.505 123.706 100.362 117.216 88.852 111.429 C 76.063 124.841 64.776 139.629 55.2 155.504 C 62.154 166.838 69.748 177.773 77.901 188.276 L 78.157 188.26 Z" fill="#478cbf" style=""/>
  <path d="M 195.499 231.52 C 195.499 259.785 164.9 277.482 140.409 263.35 C 115.917 249.217 115.901 213.887 140.377 199.739 C 145.972 196.509 152.303 194.815 158.745 194.815 C 179.032 194.799 195.483 211.249 195.499 231.52" fill="#fff" style=""/>
  <path d="M 186.626 233.726 C 186.626 252.495 166.275 264.245 150.017 254.845 C 133.758 245.461 133.758 221.976 150.017 212.608 C 153.726 210.466 157.946 209.347 162.214 209.347 C 175.691 209.315 186.642 220.25 186.626 233.726" fill="#414042" style=""/>
  <path d="M 245.169 271.631 C 238.934 271.902 233.659 267.122 233.339 260.888 L 233.339 227.06 C 234.202 217.948 244.61 213.2 252.059 218.507 C 254.857 220.505 256.663 223.623 256.983 227.06 L 256.983 260.872 C 256.663 267.106 251.372 271.886 245.137 271.615" fill="#fff" style=""/>
  <path d="M 294.855 231.52 C 294.824 259.785 325.438 277.482 349.929 263.35 C 374.421 249.217 374.437 213.887 349.961 199.739 C 344.366 196.509 338.035 194.815 331.593 194.815 C 311.306 194.799 294.855 211.249 294.855 231.52" fill="#fff" style=""/>
  <path d="M 303.712 233.726 C 303.712 252.479 324.031 264.213 340.289 254.813 C 356.516 245.413 356.5 221.96 340.242 212.592 C 336.533 210.466 332.344 209.315 328.06 209.347 C 314.599 209.347 303.68 220.266 303.712 233.726" fill="#414042" style=""/>
  <circle cx="378.705" cy="296.25" r="13.029" style="fill: rgb(61, 210, 79);"/>
  <circle cx="359.202" cy="250.688" r="6.507" style="fill: rgb(62, 212, 137);"/>
  <circle cx="372.199" cy="224.646" r="6.507" style="fill: rgb(36, 200, 178);"/>
  <path d="M 274.6 153.074 L 274.6 179.116 L 300.627 179.116 L 300.627 400.355 C 300.627 450.441 354.869 481.759 398.241 456.708 C 418.368 445.07 430.774 423.583 430.774 400.355 L 430.774 179.116 L 456.8 179.116 L 456.8 153.074 L 274.6 153.074 Z M 404.764 179.116 L 404.764 348.286 L 365.708 348.286 C 365.708 338.279 354.869 332.012 346.173 337.032 C 342.16 339.366 339.666 343.65 339.666 348.286 L 326.669 348.286 L 326.669 179.116 L 404.764 179.116 Z" style="fill: rgb(83, 176, 65);"/>
</svg>